# xmcd
# Track frame offsets:
# 150
# 10013
# 18687
# 31734
# 42871
# 54346
# 64311
# 75349
#
# Disc length: 1143 seconds
# Revision: 0
# Processed by: cddbd v1.5.2PL0 Copyright (c) Steve Scherf et al.
# Submitted via: VisiTrax 2.10.2.252 - For more info visit www.synapsa.com
#
DISCID=54047508
DTITLE=Elvis Presley - Blue Christmas
DYEAR=1900
DGENRE=Christmas
TTITLE0=Blue Christmas
TTITLE1=I'll Be Home For Christmas
TTITLE2=O Come All Ye Faithful
TTITLE3=Silent Night
TTITLE4=Silver Bells
TTITLE5=The First Noel
TTITLE6=White Christmas
TTITLE7=Winter Wonderland
EXTD=
EXTT0=
EXTT1=
EXTT2=
EXTT3=
EXTT4=
EXTT5=
EXTT6=
EXTT7=
PLAYORDER=
